<svg xmlns="http://www.w3.org/2000/svg" fill="none" viewBox="0 0 394 80">
  <path fill="#000" d="M262 0h68.5v12.7h-27.2v66.6h-13.6V12.7H262V0ZM149.6 0v12.7H94v20.4h44.3v12.6H94v21h55.5v12.6H80.5V0h69.1Zm34.3 0h-17.8l63.8 79.4h17.9l-32-39.7 32-39.6h-17.9l-23 28.6-23-28.6Zm18.3 56.7-9-11-27.1 33.7h17.8l18.3-22.7Z"/>
  <path fill="#000" d="M81 79.3 17 0H0v79.3h13.6V17l50.2 62.3H81Zm252.6-.4c-1 0-1.8-.2-2.5-.7a4.4 4.4 0 0 1-1.7-1.9 6.1 6.1 0 0 1-.6-2.6V5.2h13.6v69.2c0 1-.1 1.8-.4 2.5-.3.7-.7 1.2-1.3 1.6-.5.4-1.2.6-1.9.6l-4.2.2Z"/>
  <path fill="#000" d="M315.5 5.2V0h-68.5v5.2h27.4v74.1h13.6V5.2h27.5Z"/>
</svg>
